<svg width="22" height="34" viewBox="0 0 22 34" fill="none" xmlns="http://www.w3.org/2000/svg">
<path d="M21.5314 8.68607C21.4624 8.37404 21.1541 8.17685 20.8416 8.24599C20.5296 8.31498 20.3326 8.6238 20.4016 8.93583C20.5417 9.56974 20.6127 10.2229 20.6127 10.8772C20.6127 12.9033 19.9468 14.8275 18.687 16.4418C16.7457 18.929 15.6298 21.9304 15.4542 25.1311H14.9388H14.4104V23.907C14.4104 23.5645 14.1973 23.2714 13.897 23.1517L14.9788 15.104C15.0121 14.8558 14.9087 14.6079 14.7091 14.4572C14.5875 14.3654 14.4426 14.3168 14.2902 14.3168C14.1935 14.3168 14.0996 14.3365 14.012 14.375L12.663 14.9644L11.2726 14.3722C11.0842 14.2922 10.8632 14.3007 10.6826 14.394L9.52986 14.9877L7.96947 14.3667C7.74415 14.2762 7.47618 14.314 7.28376 14.4639C7.09025 14.6148 6.99009 14.8599 7.02259 15.1042L7.45759 18.3398C7.50025 18.6565 7.79189 18.8784 8.10814 18.8361C8.42486 18.7936 8.64712 18.5023 8.60454 18.1856L8.27486 15.7336L9.34673 16.1601C9.5022 16.222 9.67689 16.2135 9.82564 16.1369L11.0195 15.522L12.4393 16.1267C12.5859 16.1891 12.7517 16.1883 12.8977 16.1246L13.7226 15.7641L12.7371 23.0937H9.26415L8.97322 20.9294C8.93064 20.6127 8.63939 20.3909 8.32267 20.4331C8.00595 20.4757 7.78369 20.7669 7.82626 21.0836L8.10431 23.1517C7.804 23.2714 7.59087 23.5645 7.59087 23.907V25.1311H7.06259H6.54869C6.37908 21.9986 5.24048 18.9687 3.25017 16.3583C2.03868 14.7695 1.39501 12.8843 1.38861 10.9065C1.37236 5.81685 5.65306 1.64685 10.931 1.61091C10.9542 1.61076 10.9769 1.61068 10.9999 1.61068C14.5403 1.61068 17.7792 3.47247 19.4645 6.48138C19.6206 6.76013 19.9733 6.85974 20.252 6.70341C20.5309 6.54732 20.6302 6.19466 20.4742 5.91591C18.5841 2.5413 14.9592 0.453491 11 0.453491C10.9745 0.453491 10.9488 0.453569 10.9232 0.453725C5.00947 0.494038 0.213138 5.18482 0.231498 10.9102C0.238763 13.1423 0.964388 15.2689 2.33001 17.06C4.21048 19.5264 5.2722 22.3907 5.40048 25.3434C5.42368 25.8733 5.86314 26.2883 6.40095 26.2883H6.48408V31.0842C6.48408 32.1254 7.10853 33.0483 8.07501 33.4356C9.00955 33.8101 9.99384 34 11.0006 34C12.0074 34 12.9917 33.8101 13.9263 33.4356C14.8928 33.0483 15.5173 32.1253 15.5173 31.0842V26.2883H15.6018C16.1389 26.2883 16.5783 25.8743 16.602 25.3458C16.7373 22.3254 17.7737 19.4926 19.599 17.1537C21.0192 15.334 21.7698 13.1637 21.7698 10.8772C21.7699 10.139 21.6896 9.40185 21.5314 8.68607ZM8.74806 24.2509H13.2533V25.1311H8.74806V24.2509ZM7.64118 26.2883H14.3602V27.4813H7.64118V26.2883ZM7.64118 28.6385H14.3602V29.4228H7.64118V28.6385ZM14.3602 31.0842C14.3602 31.6497 14.021 32.1511 13.4959 32.3615C12.6989 32.6809 11.8594 32.8429 11.0007 32.8429C10.142 32.8429 9.30251 32.6809 8.50548 32.3615C7.98048 32.1511 7.64126 31.6497 7.64126 31.0842V30.58H14.3602V31.0842Z" fill="black"/>
</svg>
