<svg width="38" height="42" viewBox="0 0 38 42" fill="none" xmlns="http://www.w3.org/2000/svg">
<path d="M31.8725 42H3.34315C3.17187 42 3.01066 41.9201 2.90706 41.7836C2.80345 41.6474 2.76972 41.4704 2.81572 41.3054L5.01987 33.3895C3.07396 31.0894 1.9582 28.1088 1.84364 24.9153H0.848125C0.545637 24.9153 0.300537 24.6702 0.300537 24.3677V23.9844C0.300537 22.6859 1.35672 21.6297 2.65517 21.6297H21.6328C22.8112 21.6297 23.7903 22.5 23.9609 23.6315C24.2523 23.4819 24.4998 23.2482 24.6735 22.9479C24.8187 22.6969 24.8953 22.388 24.8953 22.0547V6.18774H24.4663C24.1638 6.18774 23.9187 5.94264 23.9187 5.64016V4.05215C23.9187 3.11621 24.6803 2.35463 25.6162 2.35463H29.2033C29.1264 2.15947 29.0844 1.947 29.0844 1.7249C29.0844 0.773632 29.8582 0 30.8093 0C31.7603 0 32.5342 0.773632 32.5342 1.7249C32.5342 1.947 32.4919 2.15947 32.4153 2.35463H36.0024C36.9383 2.35463 37.6999 3.11621 37.6999 4.05215V5.64016C37.6999 5.94264 37.4548 6.18774 37.1523 6.18774H36.7232V20.5245C36.7232 22.1589 36.2094 23.5776 35.1059 24.9893C34.9344 25.209 34.7359 25.455 34.5395 25.6985C34.3763 25.9007 34.2144 26.1011 34.0712 26.2827C33.9257 26.4671 33.7728 26.6533 33.6158 26.8445C32.527 28.1695 31.2931 29.6712 30.9935 32.5826C30.7427 35.0209 32.3401 41.1009 32.3563 41.1618L32.3966 41.2932C32.447 41.4592 32.4159 41.639 32.3125 41.7786C32.2089 41.9179 32.0457 42 31.8725 42ZM4.064 40.9048H31.1604C30.7589 39.2971 29.6769 34.6779 29.904 32.4707C30.2372 29.2311 31.6412 27.5222 32.7694 26.1493C32.9217 25.964 33.0702 25.7835 33.2112 25.6048C33.3569 25.4201 33.5212 25.2164 33.687 25.011C33.8797 24.7718 34.0747 24.5306 34.2431 24.3151C35.188 23.106 35.6281 21.9016 35.6281 20.5245V6.18774H25.9905V22.0544C25.9905 22.5801 25.8628 23.0789 25.6214 23.4961C25.1959 24.2319 24.4652 24.7335 23.6468 24.8747C23.5829 24.9008 23.513 24.9153 23.4399 24.9153H2.93925C3.05644 27.9456 4.14504 30.7596 6.03488 32.889C6.03554 32.8899 6.03641 32.891 6.03729 32.8919C6.0397 32.8945 6.04189 32.8971 6.04408 32.8997C6.08372 32.946 8.73449 35.9765 13.8019 35.9765C14.1044 35.9765 14.3495 36.2216 14.3495 36.5241C14.3495 36.8266 14.1044 37.0717 13.8019 37.0717C9.70744 37.0717 7.07573 35.3019 5.90565 34.2902L4.064 40.9048ZM2.38115 23.8201H22.8813C22.8005 23.2031 22.2713 22.7249 21.6326 22.7249H2.65495C2.01602 22.7249 1.48683 23.2031 1.40623 23.8201H2.38115ZM36.1754 5.09257H36.6045V4.05215C36.6045 3.71987 36.3345 3.4498 36.0022 3.4498H25.616C25.2839 3.4498 25.0136 3.71987 25.0136 4.05215V5.09257H36.1754ZM30.8091 1.09518C30.4619 1.09518 30.1793 1.37773 30.1793 1.7249C30.1793 2.07207 30.4619 2.35463 30.8091 2.35463C31.1562 2.35463 31.4388 2.07207 31.4388 1.7249C31.4388 1.37773 31.1565 1.09518 30.8091 1.09518Z" fill="black"/>
</svg>
